<?xml version="1.0" encoding="UTF-8"?>
<svg width="24px" height="24px" viewBox="0 0 24 24" version="1.1" xmlns="http://www.w3.org/2000/svg" xmlns:xlink="http://www.w3.org/1999/xlink">
    <!-- Generator: Sketch 55.2 (78181) - https://sketchapp.com -->
    <title>calendar</title>
    <desc>Created with Sketch.</desc>
    <g id="calendar" stroke="none" stroke-width="1" fill="none" fill-rule="evenodd">
        <g id="Group-5">
            <polygon id="Stroke-1" stroke-opacity="0.0117647061" stroke="#000000" stroke-width="1.33333336e-11" points="0 0 23.999999 0 23.999999 23.999999 0 23.999999"></polygon>
            <path d="M16.9999993,11.9999993 L11.9999993,11.9999993 L11.9999993,16.9999993 L16.9999993,16.9999993 L16.9999993,11.9999993 Z M15.9999998,0.99999994 L15.9999998,2.99999994 L7.99999982,2.99999994 L7.99999982,0.99999994 L5.99999982,0.99999994 L5.99999982,2.99999994 L4.99999982,2.99999994 C3.88999967,2.99999994 3.00999982,3.89999987 3.00999982,4.99999994 L2.99999982,18.9999999 C2.99999982,20.0999988 3.88999967,20.9999999 4.99999982,20.9999999 L18.9999998,20.9999999 C20.0999988,20.9999999 20.9999998,20.0999988 20.9999998,18.9999999 L20.9999998,4.99999994 C20.9999998,3.89999987 20.0999988,2.99999994 18.9999998,2.99999994 L17.9999998,2.99999994 L17.9999998,0.99999994 L15.9999998,0.99999994 Z M18.9999997,18.9999995 L4.9999997,18.9999995 L4.9999997,7.99999952 L18.9999997,7.99999952 L18.9999997,18.9999995 Z" id="Fill-3" fill="#18191D"></path>
        </g>
    </g>
</svg>