<?xml version="1.0" encoding="UTF-8"?>
<svg width="24px" height="24px" viewBox="0 0 24 24" version="1.1" xmlns="http://www.w3.org/2000/svg" xmlns:xlink="http://www.w3.org/1999/xlink">
    <!-- Generator: Sketch 55.2 (78181) - https://sketchapp.com -->
    <title>new-user</title>
    <desc>Created with Sketch.</desc>
    <g id="new-user" stroke="none" stroke-width="1" fill="none" fill-rule="evenodd">
        <g id="Group-5">
            <polygon id="Stroke-1" stroke-opacity="0.0117647061" stroke="#000000" stroke-width="1.33333336e-11" points="0 0 23.999999 0 23.999999 23.999999 0 23.999999"></polygon>
            <path d="M14.9999993,11.9999998 C17.209998,11.9999998 18.9999993,10.2099994 18.9999993,7.99999976 C18.9999993,5.78999965 17.209998,3.99999976 14.9999993,3.99999976 C12.7900001,3.99999976 10.9999993,5.78999965 10.9999993,7.99999976 C10.9999993,10.2099994 12.7899992,11.9999998 14.9999993,11.9999998 Z M5.99999994,9.99999958 L5.99999994,6.99999958 L3.99999994,6.99999958 L3.99999994,9.99999958 L0.99999994,9.99999958 L0.99999994,11.9999996 L3.99999994,11.9999996 L3.99999994,14.9999996 L5.99999994,14.9999996 L5.99999994,11.9999996 L8.99999994,11.9999996 L8.99999994,9.99999958 L5.99999994,9.99999958 Z M14.9999996,13.9999992 C12.3299992,13.9999992 6.99999958,15.3399993 6.99999958,17.9999992 L6.99999958,19.9999992 L22.9999996,19.9999992 L22.9999996,17.9999992 C22.9999996,15.3399993 17.6699989,13.9999992 14.9999996,13.9999992 Z" id="Fill-3" fill="#18191D"></path>
        </g>
    </g>
</svg>