<?xml version="1.0" encoding="UTF-8"?>
<svg width="24px" height="24px" viewBox="0 0 24 24" version="1.1" xmlns="http://www.w3.org/2000/svg" xmlns:xlink="http://www.w3.org/1999/xlink">
    <!-- Generator: Sketch 55.2 (78181) - https://sketchapp.com -->
    <title>update</title>
    <desc>Created with Sketch.</desc>
    <g id="update" stroke="none" stroke-width="1" fill="none" fill-rule="evenodd">
        <g id="Group-5">
            <polygon id="Stroke-1" stroke-opacity="0.0117647061" stroke="#000000" stroke-width="1.33333336e-11" points="0 0 23.999999 0 23.999999 23.999999 0 23.999999"></polygon>
            <path d="M18.9999989,7.99999952 L14.9999991,11.9999995 L17.9999989,11.9999995 C17.9999989,15.3099986 15.3099986,17.9999995 11.9999993,17.9999995 C10.9899991,17.9999995 10.0299991,17.7499989 9.19999925,17.299998 L7.73999934,18.7599969 C8.96999976,19.5399998 10.4299997,19.9999995 11.9999993,19.9999995 C16.4199991,19.9999995 19.9999988,16.4199991 19.9999988,11.9999995 L22.9999986,11.9999995 L18.9999989,7.99999952 Z M5.99999994,11.9999998 C5.99999994,8.68999998 8.68999998,5.99999976 11.9999999,5.99999976 C13.0099994,5.99999976 13.9699995,6.24999963 14.7999993,6.6999994 L16.2599992,5.23999949 C15.0299988,4.45999973 13.5699989,3.99999976 11.9999999,3.99999976 C7.57999945,3.99999976 3.99999994,7.57999945 3.99999994,11.9999998 L0.99999994,11.9999998 L4.99999994,15.9999998 L8.99999994,11.9999998 L5.99999994,11.9999998 Z" id="Fill-3" fill="#18191D"></path>
        </g>
    </g>
</svg>