<?xml version="1.0" encoding="UTF-8"?>
<svg width="44px" height="44px" viewBox="0 0 44 44" version="1.1" xmlns="http://www.w3.org/2000/svg" xmlns:xlink="http://www.w3.org/1999/xlink">
    <!-- Generator: Sketch 55.2 (78181) - https://sketchapp.com -->
    <title>Group 2</title>
    <desc>Created with Sketch.</desc>
    <defs>
        <circle id="path-1" cx="22" cy="22" r="22"></circle>
    </defs>
    <g id="Page-1" stroke="none" stroke-width="1" fill="none" fill-rule="evenodd">
        <g id="board-1" transform="translate(-1324.000000, -16.000000)">
            <g id="Group-2" transform="translate(1324.000000, 16.000000)">
                <mask id="mask-2" fill="white">
                    <use xlink:href="#path-1"></use>
                </mask>
                <use id="Oval" fill="#E4B131" xlink:href="#path-1"></use>
                <path d="M25.3132844,-15.0751832 C22.9261879,-13.1305949 21.3519341,-11.2300587 20.5115121,-9.12073746 C19.4806442,-6.53239525 19.3367848,-3.9099959 19.2611282,-1.49823252 C19.166837,1.48657916 19.1373943,4.11305056 17.9119808,6.02395195 C16.8185005,7.72902979 14.9233583,9.61290758 13.046478,11.6944648 C11.3723425,13.5509488 9.61845084,15.5403297 8.69007341,17.7914323 C7.78144868,19.9947808 7.73411671,22.4554087 8.76349386,25.1218603 C9.75709251,27.6965056 11.5482535,28.981422 13.7210517,29.8124902 C15.8107395,30.6117223 18.1970907,31.1296128 20.6523899,31.4216898 C23.0879365,31.7119158 25.6215013,31.7126561 27.719761,32.5663056 C29.8459727,33.4314309 31.4399792,35.091346 32.5028987,37.6293429 C33.4051876,39.7845672 34.064481,41.7495158 34.6432727,43.5386259 C35.3778499,45.8093483 36.2615042,47.6565777 37.1328597,49.2987238 C38.1178864,51.155578 39.2218021,52.7540422 41.3849103,53.7491028 C42.9297214,54.4594903 44.9597784,54.6767896 47.5701178,54.9207423 C49.7108645,55.1210131 51.7226595,54.9577609 53.7586796,54.2470033 C55.6310875,53.5936246 57.4423739,52.5063876 59.4597593,51.5613021 C61.2662007,50.7154266 63.2038298,49.8802864 65.2964992,49.1487984 C67.1689071,48.4950495 69.2187168,48.0245428 71.4418285,47.7113652 C73.37424,47.4396485 75.4754813,47.2142051 77.7544969,47.3667218 C80.1978701,47.529974 82.3878122,47.6980385 84.2378586,47.2079119 C86.5612247,46.5926624 88.3699022,45.3066354 89.7835255,43.8988171 C91.32051,42.3677268 92.2738579,40.430172 92.7699118,38.2886446 C93.2301872,36.3007444 93.0732836,34.175135 92.6666759,31.9436524 C92.3006917,29.9339112 91.7949478,27.8508732 90.7480541,25.8529781 C89.5021425,23.4745315 89.5263675,21.4255506 90.3172214,19.5972008 C91.1069571,17.7725528 92.7967457,16.2621929 94.3624276,14.5826579 C95.8364271,13.0012223 97.3909282,11.3661096 98.4747185,9.56589393 C99.561863,7.76086581 100.264761,5.65376571 99.9051129,3.28938617 C99.5249664,0.790258838 98.3409218,-1.00292333 96.7696495,-2.19714415 C95.2114215,-3.38136994 93.0199886,-3.77820959 90.8140207,-4.42492496 C88.8689377,-4.99538196 86.8888215,-5.85865628 84.8226134,-6.55423624 C82.8421245,-7.22131185 80.7405106,-7.75475022 78.9702204,-8.99450395 C77.3434169,-10.1339372 75.8168678,-11.6439269 74.6220151,-13.6299761 C73.0876394,-16.1805593 71.5879241,-17.8811949 69.7557669,-18.5508618 C67.5706698,-19.3489834 65.1541306,-18.8399773 62.7618163,-18.272852 C60.5126161,-17.7394136 58.260807,-16.7576797 56.0298687,-16.2383084 C53.6185471,-15.6767358 51.3149337,-15.8921842 49.1622609,-16.7847033 C47.2663733,-17.5709788 45.2001652,-18.197334 43.1414109,-18.584919 C41.0737119,-18.9747251 38.9217845,-19.026181 36.8783106,-18.9906431 C34.7174385,-18.9532543 32.6061345,-18.6241587 30.6904942,-18.0844272 C28.5721091,-17.4873168 26.8439332,-16.3219705 25.3132844,-15.0751832" id="Fill-1" fill="#2E4A90" mask="url(#mask-2)"></path>
            </g>
        </g>
    </g>
</svg>